<svg width="50" height="50" viewBox="0 0 50 50" fill="none" xmlns="http://www.w3.org/2000/svg">
<path d="M25 0C11.1947 0 0 11.1947 0 25C0 27.8692 0.488006 30.6209 1.37582 33.1844C1.9579 31.4675 2.92215 29.8565 4.28622 28.4866C5.54445 27.2284 8.34313 24.2004 9.9071 23.6065C11.571 21.0078 12.8704 19.9024 16.1042 16.6686C22.6305 10.1423 29.0922 6.02658 30.5444 7.47883C31.9967 8.93109 27.881 15.3928 21.3547 21.9191C19.9671 23.3067 18.5854 24.5767 17.2507 25.7114C18.8147 26.3053 20.2787 27.2225 21.5369 28.4807C22.7952 29.7389 23.7124 31.2088 24.3062 32.7728C25.441 31.4381 26.7168 30.0564 28.1044 28.6689C34.6308 22.1425 41.0983 18.0268 42.5447 19.4791C43.9969 20.9313 39.8812 27.393 33.3549 33.9193C30.1211 37.1531 29.0687 38.4995 26.464 40.1635C25.8702 41.7215 22.7893 44.4791 21.5369 45.7314C20.1787 47.0896 18.5736 48.048 16.8744 48.6301C19.4203 49.5061 22.1543 49.9882 24.9941 49.9882C38.8053 50 50 38.8053 50 25C50 11.1947 38.8053 0 25 0Z" fill="#236967"/>
</svg>
